<svg width="182" height="182" viewBox="0 0 182 182" fill="none" xmlns="http://www.w3.org/2000/svg">
<mask id="path-1-inside-1_299_630" fill="white">
<path d="M0 10C0 4.47716 4.47715 0 10 0H171.5C177.023 0 181.5 4.47715 181.5 10V171.5C181.5 177.023 177.023 181.5 171.5 181.5H10C4.47716 181.5 0 177.023 0 171.5V10Z"/>
</mask>
<path d="M10 0V2H171.5V0V-2H10V0ZM181.5 10H179.5V171.5H181.5H183.5V10H181.5ZM171.5 181.5V179.5H10V181.5V183.5H171.5V181.5ZM0 171.5H2V10H0H-2V171.5H0ZM10 181.5V179.5C5.58173 179.5 2 175.918 2 171.5H0H-2C-2 178.127 3.37259 183.5 10 183.5V181.5ZM181.5 171.5H179.5C179.5 175.918 175.918 179.5 171.5 179.5V181.5V183.5C178.127 183.5 183.5 178.127 183.5 171.5H181.5ZM171.5 0V2C175.918 2 179.5 5.58172 179.5 10H181.5H183.5C183.5 3.37258 178.127 -2 171.5 -2V0ZM10 0V-2C3.37258 -2 -2 3.37259 -2 10H0H2C2 5.58173 5.58172 2 10 2V0Z" fill="#D1D5DC" mask="url(#path-1-inside-1_299_630)"/>
<path d="M90.75 55.75V75.75" stroke="#6A7282" stroke-width="3.33333" stroke-linecap="round" stroke-linejoin="round"/>
<path d="M99.0832 64.0833L90.7498 55.75L82.4165 64.0833" stroke="#6A7282" stroke-width="3.33333" stroke-linecap="round" stroke-linejoin="round"/>
<path d="M105.75 75.75V82.4167C105.75 83.3007 105.399 84.1486 104.774 84.7737C104.149 85.3988 103.301 85.75 102.417 85.75H79.0833C78.1993 85.75 77.3514 85.3988 76.7263 84.7737C76.1012 84.1486 75.75 83.3007 75.75 82.4167V75.75" stroke="#6A7282" stroke-width="3.33333" stroke-linecap="round" stroke-linejoin="round"/>
<path d="M62.2061 110.268H63.4301V113.184C63.4301 114.084 63.3161 114.966 63.0881 115.83C62.8721 116.694 62.5601 117.504 62.1521 118.26C61.7441 119.016 61.2641 119.688 60.7121 120.276C60.1601 120.864 59.5601 121.332 58.9121 121.68L57.9941 120.474C58.5941 120.174 59.1461 119.772 59.6501 119.268C60.1661 118.752 60.6161 118.164 61.0001 117.504C61.3841 116.844 61.6781 116.148 61.8821 115.416C62.0981 114.672 62.2061 113.928 62.2061 113.184V110.268ZM62.4761 110.268H63.6821V113.184C63.6821 113.904 63.7841 114.618 63.9881 115.326C64.2041 116.034 64.5041 116.7 64.8881 117.324C65.2721 117.948 65.7101 118.506 66.2021 118.998C66.7061 119.49 67.2461 119.88 67.8221 120.168L66.9041 121.356C66.2681 121.032 65.6801 120.588 65.1401 120.024C64.6121 119.46 64.1441 118.818 63.7361 118.098C63.3401 117.366 63.0281 116.586 62.8001 115.758C62.5841 114.918 62.4761 114.06 62.4761 113.184V110.268ZM69.2441 108.864H70.7381V125.154H69.2441V108.864ZM70.3961 115.452H73.4021V116.73H70.3961V115.452ZM78.6853 110.646H79.9273V112.32C79.9273 113.316 79.7353 114.24 79.3513 115.092C78.9673 115.944 78.4273 116.694 77.7313 117.342C77.0473 117.978 76.2493 118.458 75.3373 118.782L74.5633 117.612C75.3793 117.312 76.0933 116.898 76.7053 116.37C77.3293 115.842 77.8153 115.23 78.1633 114.534C78.5113 113.826 78.6853 113.088 78.6853 112.32V110.646ZM78.9733 110.646H80.1973V112.32C80.1973 112.872 80.2933 113.406 80.4853 113.922C80.6893 114.426 80.9773 114.9 81.3493 115.344C81.7213 115.776 82.1533 116.16 82.6453 116.496C83.1493 116.832 83.7013 117.096 84.3013 117.288L83.5453 118.458C82.6453 118.146 81.8533 117.69 81.1693 117.09C80.4853 116.49 79.9453 115.782 79.5493 114.966C79.1653 114.15 78.9733 113.268 78.9733 112.32V110.646ZM74.9593 110.214H83.8693V111.438H74.9593V110.214ZM86.1913 108.882H87.6853V120.798H86.1913V108.882ZM77.2273 123.57H88.1893V124.794H77.2273V123.57ZM77.2273 119.682H78.7213V124.11H77.2273V119.682ZM101.695 119.214H103.171V125.172H101.695V119.214ZM95.0895 118.71H109.795V119.952H95.0895V118.71ZM101.695 111.672H103.009V112.086C103.009 112.638 102.895 113.166 102.667 113.67C102.439 114.162 102.121 114.618 101.713 115.038C101.305 115.458 100.825 115.836 100.273 116.172C99.7335 116.496 99.1455 116.772 98.5095 117C97.8855 117.216 97.2315 117.372 96.5475 117.468L96.0075 116.28C96.5955 116.196 97.1655 116.064 97.7175 115.884C98.2815 115.704 98.7975 115.482 99.2655 115.218C99.7455 114.954 100.165 114.66 100.525 114.336C100.897 114 101.185 113.646 101.389 113.274C101.593 112.89 101.695 112.494 101.695 112.086V111.672ZM101.875 111.672H103.189V112.086C103.189 112.482 103.291 112.872 103.495 113.256C103.699 113.628 103.981 113.982 104.341 114.318C104.701 114.642 105.115 114.942 105.583 115.218C106.063 115.482 106.579 115.704 107.131 115.884C107.695 116.064 108.271 116.196 108.859 116.28L108.319 117.468C107.635 117.372 106.975 117.216 106.339 117C105.715 116.772 105.127 116.496 104.575 116.172C104.035 115.836 103.561 115.458 103.153 115.038C102.757 114.618 102.445 114.162 102.217 113.67C101.989 113.166 101.875 112.638 101.875 112.086V111.672ZM96.5115 110.88H108.373V112.086H96.5115V110.88ZM101.695 108.864H103.171V111.294H101.695V108.864ZM122.225 108.864H123.719V125.136H122.225V108.864ZM123.323 115.47H126.311V116.712H123.323V115.47ZM118.067 110.61H119.525C119.525 112.158 119.273 113.64 118.769 115.056C118.265 116.46 117.473 117.762 116.393 118.962C115.313 120.15 113.891 121.182 112.127 122.058L111.299 120.906C112.811 120.15 114.065 119.268 115.061 118.26C116.069 117.24 116.819 116.112 117.311 114.876C117.815 113.628 118.067 112.284 118.067 110.844V110.61ZM112.055 110.61H118.823V111.852H112.055V110.61Z" fill="#6A7282"/>
</svg>
