<svg width="32" height="32" viewBox="0 0 32 32" fill="none" xmlns="http://www.w3.org/2000/svg">
<path d="M14.6665 15.3333V19.3333" stroke="#FB2C36" stroke-width="1.33333" stroke-linecap="round" stroke-linejoin="round"/>
<path d="M17.3335 15.3333V19.3333" stroke="#FB2C36" stroke-width="1.33333" stroke-linecap="round" stroke-linejoin="round"/>
<path d="M20.6668 12V21.3333C20.6668 21.687 20.5264 22.0261 20.2763 22.2761C20.0263 22.5262 19.6871 22.6667 19.3335 22.6667H12.6668C12.3132 22.6667 11.9741 22.5262 11.724 22.2761C11.474 22.0261 11.3335 21.687 11.3335 21.3333V12" stroke="#FB2C36" stroke-width="1.33333" stroke-linecap="round" stroke-linejoin="round"/>
<path d="M10 12H22" stroke="#FB2C36" stroke-width="1.33333" stroke-linecap="round" stroke-linejoin="round"/>
<path d="M13.3335 11.9999V10.6666C13.3335 10.313 13.474 9.97382 13.724 9.72378C13.9741 9.47373 14.3132 9.33325 14.6668 9.33325H17.3335C17.6871 9.33325 18.0263 9.47373 18.2763 9.72378C18.5264 9.97382 18.6668 10.313 18.6668 10.6666V11.9999" stroke="#FB2C36" stroke-width="1.33333" stroke-linecap="round" stroke-linejoin="round"/>
</svg>
