<svg width="32" height="32" viewBox="0 0 32 32" fill="none" xmlns="http://www.w3.org/2000/svg">
<g clip-path="url(#clip0_78_1023)">
<path d="M22.1161 12.5413C22.4686 12.1889 22.6666 11.7109 22.6667 11.2125C22.6668 10.7141 22.4688 10.2361 22.1165 9.8836C21.7641 9.53112 21.2861 9.33307 20.7877 9.33301C20.2893 9.33295 19.8113 9.53088 19.4588 9.88326L10.5615 18.7826C10.4067 18.9369 10.2922 19.127 10.2281 19.3359L9.34745 22.2373C9.33022 22.2949 9.32892 22.3562 9.34369 22.4145C9.35845 22.4728 9.38873 22.5261 9.43132 22.5686C9.4739 22.6111 9.5272 22.6413 9.58556 22.656C9.64392 22.6707 9.70516 22.6693 9.76279 22.6519L12.6648 21.7719C12.8736 21.7084 13.0636 21.5947 13.2181 21.4406L22.1161 12.5413Z" stroke="#0A0A0A" stroke-width="1.33333" stroke-linecap="round" stroke-linejoin="round"/>
</g>
<defs>
<clipPath id="clip0_78_1023">
<rect width="16" height="16" fill="white" transform="translate(8 8)"/>
</clipPath>
</defs>
</svg>
