<svg width="16" height="16" viewBox="0 0 16 16" fill="none" xmlns="http://www.w3.org/2000/svg">
<g clip-path="url(#clip0_70_40)">
<path d="M15.04 8.16663C15.04 7.64663 14.9933 7.14663 14.9067 6.66663H8V9.50663H11.9467C11.7733 10.42 11.2533 11.1933 10.4733 11.7133V13.56H12.8533C14.24 12.28 15.04 10.4 15.04 8.16663Z" fill="#0A0A0A"/>
<path d="M7.99997 15.3334C9.97997 15.3334 11.64 14.68 12.8533 13.56L10.4733 11.7134C9.81997 12.1534 8.98664 12.42 7.99997 12.42C6.09331 12.42 4.47331 11.1334 3.89331 9.40002H1.45331V11.2934C2.65997 13.6867 5.13331 15.3334 7.99997 15.3334Z" fill="#0A0A0A"/>
<path d="M3.89335 9.39338C3.74669 8.95338 3.66002 8.48671 3.66002 8.00005C3.66002 7.51338 3.74669 7.04671 3.89335 6.60671V4.71338H1.45335C0.953354 5.70005 0.666687 6.81338 0.666687 8.00005C0.666687 9.18671 0.953354 10.3 1.45335 11.2867L3.35335 9.80671L3.89335 9.39338Z" fill="#0A0A0A"/>
<path d="M7.99997 3.58663C9.07997 3.58663 10.04 3.95996 10.8066 4.67996L12.9066 2.57996C11.6333 1.39329 9.97997 0.666626 7.99997 0.666626C5.13331 0.666626 2.65997 2.31329 1.45331 4.71329L3.89331 6.60663C4.47331 4.87329 6.09331 3.58663 7.99997 3.58663Z" fill="#0A0A0A"/>
</g>
<defs>
<clipPath id="clip0_70_40">
<rect width="16" height="16" fill="white"/>
</clipPath>
</defs>
</svg>
